PathFileType	4	(X/Y/Z)	Kaydara	
DataRate	CameraRate	NumFrames	NumMarkers	Units	OrigDataRate	OrigDataStartFrame	OrigNumFrames	
60.00	60.00	4	74	mm	60.00	748	204	
Frame#	Time	Z_lasi			Z_rasi			Z_rpsi			Z_lpsi			Z_fneck			Z_bneck			Z_fhead			Z_rhead			Z_lhead			Z_rshld			Z_relbtop			Z_relbext			Z_relblow			Z_rwrext			Z_rwrtop			Z_rwrlow			Z_lshld			Z_lelbext			Z_lelblow			Z_lelbtop			Z_lwrext			Z_lwrtop			Z_lwrlow			Z_rtopleg			Z_ltopleg			Z_rkneefr			Z_rkneebk			Z_rkneeis			Z_lkneefr			Z_lknssbk			Z_lkneeis			Z_rankfr			Z_rankis			Z_rankbk			Z_lankfr			Z_lankbk			Z_lankis			N_lasi			N_rasi			N_rpsi			N_lpsi			N_fneck			N_bneck			N_fhead			N_rhead			N_lhead			N_rshld			N_relbtop			N_relbext			N_relblow			N_rwrext			N_rwrtop			N_rwrlow			N_lshld			N_lelbext			N_lelblow			N_lelbtop			N_lwrext			N_lwrtop			N_lwrlow			N_rtopleg			N_ltopleg			N_rkneefr			N_rkneebk			N_rkneeis			N_lkneefr			N_lknssbk			N_lkneeis			N_rankfr			N_rankis			N_rankbk			N_lankfr			N_lankbk			N_lankis			
		X1	Y1	Z1	X2	Y2	Z2	X3	Y3	Z3	X4	Y4	Z4	X5	Y5	Z5	X6	Y6	Z6	X7	Y7	Z7	X8	Y8	Z8	X9	Y9	Z9	X10	Y10	Z10	X11	Y11	Z11	X12	Y12	Z12	X13	Y13	Z13	X14	Y14	Z14	X15	Y15	Z15	X16	Y16	Z16	X17	Y17	Z17	X18	Y18	Z18	X19	Y19	Z19	X20	Y20	Z20	X21	Y21	Z21	X22	Y22	Z22	X23	Y23	Z23	X24	Y24	Z24	X25	Y25	Z25	X26	Y26	Z26	X27	Y27	Z27	X28	Y28	Z28	X29	Y29	Z29	X30	Y30	Z30	X31	Y31	Z31	X32	Y32	Z32	X33	Y33	Z33	X34	Y34	Z34	X35	Y35	Z35	X36	Y36	Z36	X37	Y37	Z37	X38	Y38	Z38	X39	Y39	Z39	X40	Y40	Z40	X41	Y41	Z41	X42	Y42	Z42	X43	Y43	Z43	X44	Y44	Z44	X45	Y45	Z45	X46	Y46	Z46	X47	Y47	Z47	X48	Y48	Z48	X49	Y49	Z49	X50	Y50	Z50	X51	Y51	Z51	X52	Y52	Z52	X53	Y53	Z53	X54	Y54	Z54	X55	Y55	Z55	X56	Y56	Z56	X57	Y57	Z57	X58	Y58	Z58	X59	Y59	Z59	X60	Y60	Z60	X61	Y61	Z61	X62	Y62	Z62	X63	Y63	Z63	X64	Y64	Z64	X65	Y65	Z65	X66	Y66	Z66	X67	Y67	Z67	X68	Y68	Z68	X69	Y69	Z69	X70	Y70	Z70	X71	Y71	Z71	X72	Y72	Z72	X73	Y73	Z73	X74	Y74	Z74	

52	12.450	-1362.91870	964.95346	406.39046	-1575.06180	977.76138	516.87122	-1641.98257	1039.35303	331.13884	-1467.73636	1030.07706	250.65731	-1398.91113	1422.25906	472.11845	-1478.39264	1502.30606	431.25351	-1280.88669	1543.32031	529.20605	-1461.94046	1595.28229	567.14405	-1429.97498	1611.92719	440.08873	-1674.94583	1370.41946	530.96222	-1769.78241	1091.24046	475.12897	-1704.61639	1073.10684	455.29640	-1735.48752	1099.41910	551.09871	-1775.38818	834.48753	541.28174	-1766.92291	839.41025	585.40352	-1720.93704	846.48445	580.79876	-1300.06500	1390.40085	312.32660	-1336.58188	1062.73598	298.44538	-1246.42921	1089.58923	301.06348	-1292.63077	1058.18283	240.14072	-1217.54028	860.26840	322.59010	-1196.41006	876.16776	355.80311	-1232.77039	875.89706	383.57475	-1682.57645	882.73674	462.55066	-1363.43796	890.91637	303.68229	-1617.90649	440.91953	607.32533	-1694.26315	450.97542	561.43066	-1590.62637	422.21378	514.69837	-1489.18182	400.14694	311.11048	-1446.84708	432.70073	241.39297	-1565.86273	453.02494	252.25451	-1645.13153	191.75388	682.28172	-1626.69373	157.53093	612.38762	-1696.94550	161.35746	630.98610	-1528.17368	186.04374	123.58314	-1583.08746	212.65917	92.18144	-1597.45239	192.61349	164.33790	461.91124	968.81676	29.33675	689.53629	981.96922	55.05998	641.95518	1055.28427	297.35859	410.39574	1024.57520	237.89246	531.98486	1446.68732	5.69877	536.74389	1523.01788	136.04968	474.56562	1660.39963	-82.95420	617.72175	1641.28265	21.60275	475.68581	1657.78809	87.74117	751.95801	1427.18765	134.98204	832.00851	1146.30898	253.61080	748.84155	1129.72473	263.34370	806.22498	1135.71938	187.70386	871.71707	894.36417	215.71302	881.07338	901.96121	162.56504	837.85881	898.83453	145.28593	312.05786	1417.86301	97.76377	166.57202	1093.76541	135.84740	258.04352	1121.12061	151.59203	207.31258	1163.55209	197.06764	134.35539	920.07019	246.04527	101.48901	922.67075	203.71925	135.28064	903.67142	173.08460	755.17029	870.04532	257.63790	378.06408	848.30902	90.52777	674.35875	422.67559	277.80231	660.43037	499.87175	369.40983	567.60826	461.95736	304.66925	585.23022	480.46196	-103.45354	503.52551	466.12568	-33.34563	625.78972	471.78986	-0.36674	617.92793	169.05664	451.19057	550.32188	193.79128	468.78479	621.32385	195.16325	511.77567	594.40399	165.22846	-167.24384	654.15993	154.75014	-92.78687	662.35161	189.40487	-159.15631 
53	12.467	-1361.67099	964.23431	423.70258	-1571.28250	976.61621	539.34299	-1642.88681	1036.53275	354.31438	-1470.53574	1027.78397	270.46370	-1398.42606	1421.01685	487.86427	-1478.73520	1500.65353	448.69717	-1278.83553	1542.15256	541.25153	-1458.40607	1593.65753	583.70651	-1430.44220	1610.56396	456.65390	-1672.91733	1368.36990	552.95002	-1767.26868	1088.73718	499.16515	-1702.35626	1071.04630	477.70226	-1731.29669	1096.74553	574.47807	-1771.11481	831.89545	564.24927	-1761.12503	836.37794	608.13461	-1715.06409	843.37952	602.00241	-1303.20023	1389.17725	325.65086	-1339.87076	1061.75308	309.65273	-1248.95432	1088.36113	311.45483	-1296.78955	1057.61284	251.72026	-1219.15939	858.68752	328.53661	-1196.96922	873.99719	361.32454	-1232.66357	873.27324	390.11402	-1678.52402	880.57991	488.24581	-1364.27078	890.38330	320.84759	-1606.30829	434.99969	628.26229	-1684.91226	447.59277	586.10554	-1583.48984	419.82883	534.24236	-1483.86688	398.95954	326.59004	-1443.24844	433.51185	256.09089	-1562.18445	453.01991	271.01032	-1633.25195	182.56727	692.64992	-1619.02420	151.68446	620.24937	-1687.45560	155.12290	643.13583	-1527.94678	191.19822	131.02434	-1583.55698	219.33249	102.09159	-1596.27457	196.47705	173.81607	466.35925	969.74030	6.69309	693.59192	983.33061	33.48503	644.26331	1053.77426	275.21633	412.46655	1022.42714	215.31361	529.64973	1445.47272	-14.93454	534.65054	1521.33865	115.68190	469.94045	1659.31366	-102.92998	614.46854	1640.33997	0.02054	473.32439	1656.58203	67.75215	750.04135	1427.70126	114.18303	831.15143	1146.05591	231.77542	747.99950	1129.57283	242.11103	804.92615	1135.86632	165.59315	872.10861	894.93546	193.34980	881.12785	902.41745	140.33368	837.67426	898.89084	122.90311	310.12312	1413.78357	76.89463	172.13806	1086.98959	115.49023	263.79387	1115.08812	130.71338	212.69436	1156.03287	177.23194	147.84292	910.48141	228.04308	113.85148	911.95496	186.44224	147.41904	893.91899	155.07351	758.33458	868.59932	234.96431	381.37272	847.76520	66.11928	681.78963	420.11368	255.39812	666.29807	499.80640	342.77927	574.43848	460.31006	279.98770	589.90360	477.73434	-123.73974	508.31333	464.72824	-54.10463	629.59576	470.47871	-20.15349	622.88345	174.20702	439.93252	555.24902	200.06729	455.33352	625.49210	203.34026	499.20624	600.59944	161.96552	-182.23982	656.50604	152.34625	-104.84621	668.07671	183.70665	-171.87584 
54	12.483	-1360.42648	963.65219	441.89991	-1567.44202	975.31548	562.78282	-1643.82919	1032.90634	378.71937	-1473.91937	1025.47798	290.85457	-1398.03253	1419.58481	503.33611	-1479.26727	1498.83774	465.84473	-1276.85593	1540.26733	553.91426	-1455.66483	1591.87836	600.39391	-1431.01730	1608.85284	472.85378	-1670.85831	1366.51550	574.85394	-1764.70490	1086.24702	523.34423	-1699.81766	1068.67546	500.80097	-1726.96014	1094.12476	597.72842	-1766.31454	829.19739	587.48123	-1754.92416	833.37540	630.96981	-1708.93875	840.53360	623.55289	-1306.55182	1387.59796	339.00494	-1343.48709	1060.46013	320.43713	-1251.54190	1087.18590	321.61610	-1301.17935	1056.97968	262.92185	-1220.84625	857.14500	334.39465	-1197.88544	872.00844	366.80504	-1232.58354	870.73814	396.82247	-1674.46930	877.64259	514.99672	-1364.19235	889.92531	340.32715	-1594.96399	428.38909	648.37883	-1675.12497	443.47710	609.65508	-1576.10504	417.11288	553.02029	-1476.56998	397.28428	343.70800	-1437.74933	434.11140	273.17167	-1557.15591	452.66273	291.70628	-1622.71484	173.33456	701.85532	-1612.72079	145.77363	627.44362	-1679.86237	149.20170	652.54379	-1527.30865	197.04645	140.07792	-1582.89978	226.76695	114.50380	-1594.17999	201.03434	185.10660	469.20567	971.89232	-15.32982	696.32271	984.51149	10.71096	646.60744	1053.13683	251.76413	413.93578	1021.83167	192.57891	526.79436	1445.59418	-35.21811	530.98804	1521.27182	95.92616	465.07568	1659.29062	-122.86155	610.76763	1640.37659	-21.65190	470.56820	1656.54678	47.66827	747.82562	1429.35394	93.99580	829.66202	1146.98929	210.13693	746.70647	1130.30304	220.29718	803.22746	1136.87477	143.64641	872.96555	896.62315	171.05091	881.87263	904.20334	118.12814	838.48389	899.96017	100.87940	308.23851	1410.29541	55.16552	177.74908	1080.81215	93.82522	269.94837	1109.74075	108.86106	217.76184	1149.02565	155.75422	161.74301	901.81496	208.59297	127.12516	901.88690	167.49977	160.54619	884.72977	135.69431	761.16409	867.74620	210.66059	383.95226	848.12775	42.61935	690.99960	417.81803	229.22348	673.53264	499.99264	314.82647	582.75967	459.01249	252.50351	592.31270	477.68459	-146.12626	511.99402	464.19861	-73.80935	632.99786	470.06527	-41.00325	629.55006	180.27460	425.05264	561.47053	207.31758	438.56190	631.22032	212.44951	483.05882	605.96294	159.35095	-198.91253	660.59547	151.80907	-119.59857	672.75093	180.61882	-186.35395 
55	12.500	-1359.60144	963.30276	460.73895	-1563.53546	973.46375	586.63208	-1645.18600	1028.95470	404.30149	-1477.05597	1023.14575	311.70670	-1397.34283	1418.02551	518.13103	-1479.89960	1497.02469	483.08144	-1275.13489	1539.43878	565.29797	-1452.73834	1590.81085	616.49590	-1432.15408	1607.72552	487.82337	-1668.93341	1364.74365	596.94267	-1761.96930	1083.70461	547.66754	-1697.93030	1066.77589	523.07690	-1722.48459	1091.57532	621.09192	-1760.95840	826.64330	610.74921	-1748.30597	830.54398	653.92471	-1702.34512	837.85141	645.39406	-1310.36942	1385.47684	352.14470	-1347.03827	1058.87253	330.91805	-1254.51889	1085.73364	331.34991	-1305.77164	1055.93750	273.95407	-1222.60231	855.50980	340.27161	-1198.72704	869.98245	372.25731	-1232.88452	868.23410	403.02742	-1670.21774	873.81302	542.21966	-1364.79233	888.90884	359.19186	-1584.66003	422.09343	666.81427	-1666.49673	439.53667	631.66100	-1570.03357	414.36237	570.52998	-1467.29660	395.21729	363.03482	-1430.04791	433.99910	292.42758	-1549.95209	451.39011	314.43390	-1610.39459	167.46357	714.40048	-1605.55511	141.65878	638.40813	-1670.38055	145.15532	666.56219	-1525.79956	203.87951	150.96458	-1581.79825	235.07891	129.11128	-1590.73547	205.85033	198.48362	469.95190	974.66347	-36.97950	697.12883	985.31731	-13.10489	649.04449	1053.18726	227.46185	415.36118	1023.23563	170.47287	524.02111	1446.82816	-55.71620	527.96150	1522.18781	75.38595	459.98535	1659.89410	-142.63884	606.89850	1641.13129	-42.91475	467.48276	1657.33154	27.74934	745.34256	1431.97800	74.23991	828.44818	1149.00192	187.72366	745.28366	1131.73843	197.83407	801.80176	1138.90213	121.31053	874.32190	899.27322	148.88194	883.70041	907.15919	95.98751	840.47028	902.50565	78.48996	306.11553	1407.64893	33.38710	183.58267	1075.33058	70.70149	276.66492	1105.07591	85.92806	222.71248	1142.72720	132.43979	175.48481	894.15825	187.80413	140.66866	892.51701	146.83374	174.76715	876.31210	114.94969	763.63884	867.36832	184.42568	385.25311	849.43863	20.06496	702.23892	415.55336	200.39087	682.94060	500.14172	283.34362	593.51051	457.74460	221.61758	594.09344	479.66080	-169.94232	514.21703	466.19133	-95.26146	635.64186	471.73233	-63.79252	638.81920	186.67025	405.87971	570.37483	214.31345	417.16660	639.60987	221.72121	463.63503	609.15680	157.05320	-211.85734	663.84842	151.54032	-131.93995	675.86952	178.50367	-199.50077 
